<?xml version="1.0" encoding="UTF-8"?>
<!DOCTYPE svg PUBLIC "-//W3C//DTD SVG 1.1//EN" "http://www.w3.org/Graphics/SVG/1.1/DTD/svg11.dtd">
<!-- Creator: CorelDRAW 2017 -->
<svg xmlns="http://www.w3.org/2000/svg" xml:space="preserve" width="116.745mm" height="24.4105mm" version="1.1" style="shape-rendering:geometricPrecision; text-rendering:geometricPrecision; image-rendering:optimizeQuality; fill-rule:evenodd; clip-rule:evenodd"
viewBox="0 0 2159 451"
 xmlns:xlink="http://www.w3.org/1999/xlink">
 <defs>
  <style type="text/css">
   <![CDATA[
    .fil0 {fill:#762824}
    .fil1 {fill:#9D9E9E}
    .fil4 {fill:#1C1B17;fill-rule:nonzero}
    .fil3 {fill:#1C1B17;fill-rule:nonzero}
    .fil2 {fill:#762824;fill-rule:nonzero}
   ]]>
  </style>
 </defs>
 <g id="Katman_x0020_1">
  <metadata id="CorelCorpID_0Corel-Layer"/>
  <path class="fil0" d="M256 389c-30,12 -59,39 -71,62 27,-18 44,-21 71,-24l0 -39z"/>
  <path class="fil0" d="M317 344c26,-21 45,-48 57,-79 -14,11 -31,22 -50,32 0,6 -1,12 -1,18 -1,10 -3,20 -6,29z"/>
  <path class="fil0" d="M232 383c8,-2 16,-4 24,-6 8,-3 16,-6 23,-9 10,-13 17,-32 20,-56 0,-1 0,-1 0,-2 -18,8 -38,16 -59,23 -21,7 -41,12 -61,16 1,1 1,1 2,2 17,17 35,29 51,33z"/>
  <path class="fil0" d="M92 357c28,18 61,28 94,30 -8,-6 -15,-12 -23,-20 -4,-4 -8,-9 -12,-13 -21,3 -41,4 -59,4z"/>
  <path class="fil0" d="M13 264c10,25 25,47 44,65 9,2 19,3 31,4 14,1 30,0 47,-2 -14,-20 -27,-43 -38,-69 -14,2 -27,3 -40,4 -16,1 -31,0 -43,-2z"/>
  <path class="fil0" d="M5 148c-7,29 -7,60 1,91 10,4 28,6 51,5 10,0 20,-1 31,-3 -1,-4 -3,-7 -4,-11 -10,-30 -17,-60 -20,-88 -18,3 -35,5 -50,6 -3,0 -6,0 -9,0z"/>
  <path class="fil0" d="M68 43c-26,21 -46,49 -58,81l0 0c15,-1 32,-3 50,-6 -1,-16 0,-31 1,-45 1,-10 3,-20 6,-29z"/>
  <path class="fil1" d="M385 223c3,-25 2,-51 -6,-77 -8,9 -20,18 -33,27 -10,7 -21,13 -34,20 7,27 11,53 12,77 15,-8 27,-17 38,-26 9,-7 16,-14 22,-21z"/>
  <path class="fil1" d="M121 258c12,26 26,50 41,69 23,-4 47,-10 71,-18 24,-8 47,-17 68,-27 0,-24 -3,-51 -10,-79 -25,12 -53,23 -83,33 -30,10 -59,17 -86,22z"/>
  <path class="fil1" d="M242 86c-23,10 -49,20 -76,29 -27,9 -54,16 -79,21 3,27 9,56 20,85 2,5 3,10 5,15 27,-5 57,-12 88,-22 31,-10 59,-22 84,-33 -1,-5 -3,-10 -5,-15 -10,-29 -23,-56 -37,-79z"/>
  <path class="fil1" d="M295 31c-29,-18 -62,-29 -96,-31 8,6 15,12 23,20 10,10 20,22 29,35 16,-8 31,-16 44,-24l0 0z"/>
  <path class="fil1" d="M371 119c-13,-29 -32,-54 -55,-73 -2,2 -5,3 -8,5 -13,8 -28,16 -44,25 15,24 28,52 38,82 1,4 2,7 4,11 10,-5 19,-11 27,-16 19,-13 32,-24 38,-33z"/>
  <path class="fil1" d="M129 9c-8,3 -16,6 -23,9 -10,13 -17,32 -20,56 -1,12 -2,24 -1,37 23,-5 48,-12 73,-20 25,-8 49,-17 71,-27 -8,-11 -16,-21 -24,-29 -17,-17 -35,-29 -51,-33 -8,2 -16,4 -24,6z"/>
  <path class="fil2" d="M2027 181l0 98c0,5 1,9 2,12l-65 0c1,-3 2,-7 2,-12l0 -220c0,-4 -1,-8 -2,-12l97 0c19,0 36,5 49,14 18,13 26,30 26,54 0,16 -4,29 -13,40 -7,9 -20,16 -39,23l63 103c3,5 6,9 9,11l-73 0c-1,-4 -2,-8 -4,-11l-52 -99zm0 -19l12 0c9,0 17,-3 22,-8 9,-8 13,-20 13,-36 0,-14 -3,-25 -10,-33 -6,-8 -15,-12 -26,-12l-12 0 0 90z"/>
  <path class="fil2" d="M1800 47l140 0 0 27c-4,-1 -8,-2 -12,-2l-66 0 0 82 64 0c5,0 10,0 13,-1l0 28c-3,-1 -7,-1 -13,-1l-65 0 0 83 64 0c5,0 10,-1 14,-2l0 29 -140 0c1,-3 2,-7 2,-12l0 -220c0,-5 -1,-9 -2,-12z"/>
  <path class="fil2" d="M1779 291l-137 0c1,-3 2,-7 2,-12l0 -220c0,-5 -1,-9 -2,-12l65 0c-1,3 -2,7 -2,12l0 204 60 0c7,0 11,-1 15,-2l0 30z"/>
  <path class="fil2" d="M1495 181l0 98c0,5 1,9 2,12l-65 0c1,-3 2,-7 2,-12l0 -220c0,-4 -1,-8 -2,-12l97 0c19,0 36,5 49,14 18,13 26,30 26,54 0,16 -4,29 -13,40 -7,9 -20,16 -39,23l63 103c3,5 6,9 9,11l-73 0c-1,-4 -2,-8 -4,-11l-52 -99zm0 -19l12 0c9,0 17,-3 22,-8 9,-8 13,-20 13,-36 0,-14 -3,-25 -10,-33 -6,-8 -15,-12 -26,-12l-12 0 0 90z"/>
  <path class="fil2" d="M1271 47l140 0 0 27c-4,-1 -8,-2 -12,-2l-66 0 0 82 64 0c5,0 10,0 13,-1l0 28c-3,-1 -7,-1 -13,-1l-65 0 0 83 64 0c5,0 10,-1 14,-2l0 29 -140 0c1,-3 2,-7 2,-12l0 -220c0,-5 -1,-9 -2,-12z"/>
  <path class="fil2" d="M1120 183l0 96c0,5 1,9 2,12l-65 0c1,-3 2,-7 2,-12l0 -220c0,-5 -1,-9 -2,-12l65 0c-1,3 -2,7 -2,12l0 97 67 -99c2,-3 3,-6 5,-10l45 0c-3,2 -6,6 -9,10l-63 92 80 131c3,5 6,9 8,11l-73 0c-1,-4 -2,-8 -4,-11l-56 -98z"/>
  <path class="fil2" d="M1036 106l0 173c0,5 1,9 2,12l-65 0c1,-3 2,-7 2,-12l0 -173 61 0z"/>
  <path class="fil2" d="M974 47l65 0c-1,3 -2,7 -2,12l0 32 -61 0 0 -32c0,-5 -1,-9 -2,-12z"/>
  <path class="fil2" d="M957 291l-137 0c1,-3 2,-7 2,-12l0 -220c0,-5 -1,-9 -2,-12l65 0c-1,3 -2,7 -2,12l0 204 60 0c7,0 11,-1 15,-2l0 30z"/>
  <path class="fil2" d="M659 47l140 0 0 27c-4,-1 -8,-2 -12,-2l-66 0 0 82 64 0c5,0 10,0 13,-1l0 28c-3,-1 -7,-1 -13,-1l-65 0 0 83 64 0c5,0 10,-1 14,-2l0 29 -140 0c1,-3 2,-7 2,-12l0 -220c0,-5 -1,-9 -2,-12z"/>
  <path class="fil2" d="M639 58l0 41c-12,-9 -22,-15 -31,-19 -9,-4 -18,-5 -28,-5 -22,0 -39,8 -51,25 -12,17 -18,40 -18,69 0,31 7,54 20,71 13,16 29,24 50,24 10,0 19,-2 28,-6 9,-4 19,-10 30,-20l0 40c-13,5 -24,9 -34,11 -10,2 -22,3 -35,3 -40,0 -71,-10 -91,-31 -21,-21 -32,-52 -32,-93 0,-27 5,-49 14,-65 21,-37 59,-56 115,-56 23,0 44,4 63,11z"/>
  <path class="fil3" d="M2135 165c4,0 7,1 10,3 3,2 6,4 8,8 2,3 3,7 3,10 0,4 -1,7 -3,10 -2,3 -4,6 -8,8 -3,2 -7,3 -10,3 -4,0 -7,-1 -10,-3 -3,-2 -6,-4 -8,-8 -2,-3 -3,-7 -3,-10 0,-4 1,-7 3,-10 2,-3 4,-6 8,-8 3,-2 7,-3 10,-3zm0 3c-3,0 -6,1 -9,2 -3,2 -5,4 -7,6 -2,3 -2,6 -2,9 0,3 1,6 2,9 2,3 4,5 6,6 3,2 6,2 9,2 3,0 6,-1 9,-2 3,-2 5,-4 6,-6 2,-3 2,-6 2,-9 0,-3 -1,-6 -2,-9 -2,-3 -4,-5 -7,-6 -3,-2 -6,-2 -9,-2zm-9 29l0 -22 8 0c3,0 5,0 6,1 1,0 2,1 3,2 1,1 1,2 1,3 0,2 -1,3 -2,4 -1,1 -3,2 -5,2 1,0 1,1 2,1 1,1 2,2 3,4l3 4 -4 0 -2 -4c-2,-3 -3,-5 -4,-5 -1,-1 -2,-1 -3,-1l-2 0 0 10 -4 0zm4 -13l4 0c2,0 4,0 4,-1 1,-1 1,-1 1,-2 0,-1 0,-1 -1,-2 0,-1 -1,-1 -2,-1 -1,0 -2,0 -4,0l-4 0 0 7z"/>
  <path class="fil0" d="M639 306c-61,25 -123,59 -144,124 54,-27 81,-37 144,-17l0 -107z"/>
  <g id="_1967412527424">
   <path class="fil4" d="M765 346c0,1 0,1 0,2 0,1 0,2 -1,3l-17 58c0,1 -1,1 -1,2 0,1 -1,1 -2,1 -1,0 -2,0 -3,1 -1,0 -3,0 -6,0 -2,0 -4,0 -6,0 -1,0 -3,0 -3,-1 -1,0 -1,-1 -2,-1 0,0 -1,-1 -1,-2l-11 -39 0 -1 0 1 -10 39c0,1 0,1 -1,2 0,1 -1,1 -2,1 -1,0 -2,0 -4,1 -1,0 -3,0 -6,0 -2,0 -4,0 -6,0 -1,0 -3,0 -3,-1 -1,0 -1,-1 -2,-1 0,0 -1,-1 -1,-2l-17 -58c0,-1 -1,-2 -1,-3 0,-1 0,-1 0,-2 0,0 0,-1 0,-1 0,0 1,-1 1,-1 1,0 2,0 3,0 1,0 3,0 4,0 2,0 3,0 5,0 1,0 2,0 3,0 1,0 1,1 1,1 0,0 0,1 1,1l13 47 0 1 0 -1 12 -47c0,-1 0,-1 1,-1 0,0 1,-1 1,-1 1,0 1,0 3,0 1,0 3,0 4,0 2,0 3,0 4,0 1,0 2,0 3,1 1,0 1,0 1,1 0,0 0,1 1,1l13 47 0 1 0 -1 12 -47c0,-1 0,-1 1,-1 0,0 1,-1 1,-1 1,0 2,0 3,0 1,0 3,0 4,0 2,0 3,0 4,0 1,0 2,0 3,0 1,0 1,0 1,1 0,0 0,1 0,1zm128 0c0,1 0,1 0,2 0,1 0,2 -1,3l-17 58c0,1 -1,1 -1,2 0,1 -1,1 -2,1 -1,0 -2,0 -3,1 -1,0 -3,0 -6,0 -2,0 -4,0 -6,0 -1,0 -3,0 -3,-1 -1,0 -1,-1 -2,-1 0,0 -1,-1 -1,-2l-11 -39 0 -1 0 1 -10 39c0,1 0,1 -1,2 0,1 -1,1 -2,1 -1,0 -2,0 -4,1 -1,0 -3,0 -6,0 -2,0 -4,0 -6,0 -1,0 -3,0 -3,-1 -1,0 -1,-1 -2,-1 0,0 -1,-1 -1,-2l-17 -58c0,-1 -1,-2 -1,-3 0,-1 0,-1 0,-2 0,0 0,-1 0,-1 0,0 1,-1 1,-1 1,0 2,0 3,0 1,0 3,0 4,0 2,0 3,0 5,0 1,0 2,0 3,0 1,0 1,1 1,1 0,0 0,1 1,1l13 47 0 1 0 -1 12 -47c0,-1 0,-1 1,-1 0,0 1,-1 1,-1 1,0 1,0 3,0 1,0 3,0 4,0 2,0 3,0 4,0 1,0 2,0 3,1 1,0 1,0 1,1 0,0 0,1 1,1l13 47 0 1 0 -1 12 -47c0,-1 0,-1 1,-1 0,0 1,-1 1,-1 1,0 2,0 3,0 1,0 3,0 4,0 2,0 3,0 4,0 1,0 2,0 3,0 1,0 1,0 1,1 0,0 0,1 0,1zm128 0c0,1 0,1 0,2 0,1 0,2 -1,3l-17 58c0,1 -1,1 -1,2 0,1 -1,1 -2,1 -1,0 -2,0 -3,1 -1,0 -3,0 -6,0 -2,0 -4,0 -6,0 -1,0 -3,0 -3,-1 -1,0 -1,-1 -2,-1 0,0 -1,-1 -1,-2l-11 -39 0 -1 0 1 -10 39c0,1 0,1 -1,2 0,1 -1,1 -2,1 -1,0 -2,0 -4,1 -1,0 -3,0 -6,0 -2,0 -4,0 -6,0 -1,0 -3,0 -3,-1 -1,0 -1,-1 -2,-1 0,0 -1,-1 -1,-2l-17 -58c0,-1 -1,-2 -1,-3 0,-1 0,-1 0,-2 0,0 0,-1 0,-1 0,0 1,-1 1,-1 1,0 2,0 3,0 1,0 3,0 4,0 2,0 3,0 5,0 1,0 2,0 3,0 1,0 1,1 1,1 0,0 0,1 1,1l13 47 0 1 0 -1 12 -47c0,-1 0,-1 1,-1 0,0 1,-1 1,-1 1,0 1,0 3,0 1,0 3,0 4,0 2,0 3,0 4,0 1,0 2,0 3,1 1,0 1,0 1,1 0,0 0,1 1,1l13 47 0 1 0 -1 12 -47c0,-1 0,-1 1,-1 0,0 1,-1 1,-1 1,0 2,0 3,0 1,0 3,0 4,0 2,0 3,0 4,0 1,0 2,0 3,0 1,0 1,0 1,1 0,0 0,1 0,1zm42 56c0,4 -1,7 -2,9 -2,2 -4,2 -8,2 -4,0 -7,-1 -8,-2 -2,-2 -2,-4 -2,-9 0,-4 1,-7 2,-9 2,-2 4,-2 8,-2 4,0 7,1 8,2 2,2 2,4 2,9zm84 -2c0,1 0,2 0,3 0,1 0,2 0,2 0,1 0,1 0,1 0,0 -1,1 -1,1 -1,1 -2,1 -3,2 -1,1 -3,1 -5,2 -2,1 -4,1 -6,1 -2,0 -4,1 -6,1 -5,0 -9,-1 -13,-2 -4,-2 -7,-4 -10,-7 -3,-3 -5,-7 -6,-11 -1,-4 -2,-9 -2,-15 0,-6 1,-12 2,-17 2,-5 4,-9 7,-12 3,-3 6,-5 10,-7 4,-1 8,-2 13,-2 2,0 4,0 6,1 2,0 4,1 5,1 2,1 3,1 4,2 1,1 2,1 3,2 1,1 1,1 1,1 0,0 0,1 0,1 0,1 0,1 0,2 0,1 0,2 0,3 0,3 0,5 -1,6 0,1 -1,2 -2,2 -1,0 -2,0 -3,-1 -1,-1 -2,-1 -3,-2 -1,-1 -3,-2 -4,-2 -2,-1 -4,-1 -6,-1 -5,0 -8,2 -11,5 -2,4 -4,9 -4,16 0,3 0,6 1,9 1,3 2,5 3,7 1,2 3,3 5,4 2,1 4,1 6,1 2,0 5,0 6,-1 2,-1 3,-2 5,-2 1,-1 2,-2 3,-2 1,-1 2,-1 2,-1 0,0 1,0 1,0 0,0 1,1 1,1 0,1 0,1 0,2 0,1 0,2 0,4zm90 -24c0,2 0,4 -1,5 -1,1 -2,2 -4,2l-39 0c0,3 0,5 1,7 1,2 2,4 3,6 1,2 3,3 5,4 2,1 5,1 8,1 3,0 6,0 8,-1 2,0 4,-1 6,-2 2,-1 3,-1 4,-2 1,0 2,-1 3,-1 0,0 1,0 1,0 0,0 1,0 1,1 0,0 0,1 0,2 0,1 0,2 0,3 0,1 0,2 0,3 0,1 0,1 0,2 0,1 0,1 0,1 0,0 0,1 -1,1 0,0 -1,1 -3,1 -1,1 -3,1 -5,2 -2,1 -5,1 -7,1 -3,0 -6,1 -9,1 -6,0 -11,-1 -15,-2 -4,-1 -8,-4 -11,-6 -3,-3 -5,-7 -6,-11 -1,-4 -2,-10 -2,-16 0,-6 1,-11 2,-15 1,-5 4,-8 6,-12 3,-3 6,-6 10,-7 4,-2 9,-3 14,-3 5,0 10,1 14,2 4,2 7,4 9,7 2,3 4,6 5,10 1,4 2,8 2,12l0 3zm-17 -5c0,-5 -1,-9 -3,-12 -2,-3 -6,-4 -10,-4 -2,0 -4,0 -6,1 -2,1 -3,2 -4,3 -1,1 -2,3 -3,5 -1,2 -1,4 -1,6l27 0zm68 39c0,0 0,1 0,1 0,0 -1,1 -1,1 -1,0 -2,0 -3,1 -1,0 -3,0 -4,0 -2,0 -3,0 -4,0 -1,0 -2,0 -3,-1 -1,0 -1,-1 -1,-1 0,0 0,-1 0,-1l0 -94c0,0 0,-1 0,-1 0,0 1,-1 1,-1 1,0 2,0 3,-1 1,0 3,0 4,0 2,0 3,0 4,0 1,0 2,0 3,1 1,0 1,1 1,1 0,0 0,1 0,1l0 94zm54 0c0,0 0,1 0,1 0,0 -1,1 -1,1 -1,0 -2,0 -3,1 -1,0 -3,0 -4,0 -2,0 -3,0 -4,0 -1,0 -2,0 -3,-1 -1,0 -1,-1 -1,-1 0,0 0,-1 0,-1l0 -64c0,0 0,-1 0,-1 0,0 1,-1 1,-1 1,0 2,0 3,-1 1,0 3,0 4,0 2,0 3,0 4,0 1,0 2,0 3,1 1,0 1,1 1,1 0,0 0,1 0,1l0 64zm1 -85c0,4 -1,6 -2,8 -1,1 -4,2 -8,2 -4,0 -7,-1 -8,-2 -1,-1 -2,-4 -2,-7 0,-4 1,-6 2,-8 1,-1 4,-2 8,-2 4,0 7,1 8,2 1,1 2,4 2,7zm94 86c0,0 0,1 0,1 0,0 -1,1 -1,1 -1,0 -2,0 -3,1 -1,0 -3,0 -5,0 -2,0 -4,0 -5,0 -1,0 -2,0 -3,0 -1,0 -1,-1 -2,-1 0,0 -1,-1 -1,-1l-21 -34 0 34c0,0 0,1 0,1 0,0 -1,1 -1,1 -1,0 -2,0 -3,1 -1,0 -3,0 -4,0 -2,0 -3,0 -4,0 -1,0 -2,0 -3,-1 -1,0 -1,-1 -1,-1 0,0 0,-1 0,-1l0 -94c0,0 0,-1 0,-1 0,0 1,-1 1,-1 1,0 2,0 3,-1 1,0 3,0 4,0 2,0 3,0 4,0 1,0 2,0 3,1 1,0 1,1 1,1 0,0 0,1 0,1l0 56 19 -25c0,-1 1,-1 1,-2 0,0 1,-1 2,-1 1,0 2,0 3,-1 1,0 3,0 4,0 2,0 3,0 4,0 1,0 2,0 3,1 1,0 1,1 2,1 0,0 0,1 0,1 0,1 0,1 -1,2 0,1 -1,2 -2,3l-19 21 22 33c1,1 1,2 1,2 0,1 0,1 0,2zm84 -34c0,2 0,4 -1,5 -1,1 -2,2 -4,2l-39 0c0,3 0,5 1,7 1,2 2,4 3,6 1,2 3,3 5,4 2,1 5,1 8,1 3,0 6,0 8,-1 2,0 4,-1 6,-2 2,-1 3,-1 4,-2 1,0 2,-1 3,-1 0,0 1,0 1,0 0,0 1,0 1,1 0,0 0,1 0,2 0,1 0,2 0,3 0,1 0,2 0,3 0,1 0,1 0,2 0,1 0,1 0,1 0,0 0,1 -1,1 0,0 -1,1 -3,1 -1,1 -3,1 -5,2 -2,1 -5,1 -7,1 -3,0 -6,1 -9,1 -6,0 -11,-1 -15,-2 -4,-1 -8,-4 -11,-6 -3,-3 -5,-7 -6,-11 -1,-4 -2,-10 -2,-16 0,-6 1,-11 2,-15 1,-5 4,-8 6,-12 3,-3 6,-6 10,-7 4,-2 9,-3 14,-3 5,0 10,1 14,2 4,2 7,4 9,7 2,3 4,6 5,10 1,4 2,8 2,12l0 3zm-17 -5c0,-5 -1,-9 -3,-12 -2,-3 -6,-4 -10,-4 -2,0 -4,0 -6,1 -2,1 -3,2 -4,3 -1,1 -2,3 -3,5 -1,2 -1,4 -1,6l27 0zm91 -19c0,2 0,3 0,4 0,1 0,2 0,3 0,1 0,1 -1,1 0,0 -1,0 -1,0 0,0 -1,0 -1,0 0,0 -1,0 -2,-1 -1,0 -1,0 -2,-1 -1,0 -2,0 -2,0 -1,0 -2,0 -3,1 -1,0 -2,1 -3,2 -1,1 -2,2 -3,3 -1,1 -2,3 -4,5l0 40c0,0 0,1 0,1 0,0 -1,1 -1,1 -1,0 -2,0 -3,1 -1,0 -3,0 -4,0 -2,0 -3,0 -4,0 -1,0 -2,0 -3,-1 -1,0 -1,-1 -1,-1 0,0 0,-1 0,-1l0 -64c0,0 0,-1 0,-1 0,0 1,-1 1,-1 1,0 1,0 2,-1 1,0 2,0 4,0 2,0 3,0 4,0 1,0 2,0 2,1 1,0 1,1 1,1 0,0 0,1 0,1l0 8c2,-2 3,-4 5,-6 1,-2 3,-3 4,-4 1,-1 3,-2 4,-2 1,0 3,-1 4,-1 1,0 1,0 2,0 1,0 1,0 2,0 1,0 1,0 2,1 1,0 1,0 1,1 0,0 0,1 1,1 0,0 0,1 0,1 0,0 0,1 0,2 0,1 0,2 0,4zm47 58c0,0 0,1 0,1 0,0 -1,1 -1,1 -1,0 -2,0 -3,1 -1,0 -3,0 -4,0 -2,0 -3,0 -4,0 -1,0 -2,0 -3,-1 -1,0 -1,-1 -1,-1 0,0 0,-1 0,-1l0 -94c0,0 0,-1 0,-1 0,0 1,-1 1,-1 1,0 2,0 3,-1 1,0 3,0 4,0 2,0 3,0 4,0 1,0 2,0 3,1 1,0 1,1 1,1 0,0 0,1 0,1l0 94zm95 -34c0,2 0,4 -1,5 -1,1 -2,2 -4,2l-39 0c0,3 0,5 1,7 1,2 2,4 3,6 1,2 3,3 5,4 2,1 5,1 8,1 3,0 6,0 8,-1 2,0 4,-1 6,-2 2,-1 3,-1 4,-2 1,0 2,-1 3,-1 0,0 1,0 1,0 0,0 1,0 1,1 0,0 0,1 0,2 0,1 0,2 0,3 0,1 0,2 0,3 0,1 0,1 0,2 0,1 0,1 0,1 0,0 0,1 -1,1 0,0 -1,1 -3,1 -1,1 -3,1 -5,2 -2,1 -5,1 -7,1 -3,0 -6,1 -9,1 -6,0 -11,-1 -15,-2 -4,-1 -8,-4 -11,-6 -3,-3 -5,-7 -6,-11 -1,-4 -2,-10 -2,-16 0,-6 1,-11 2,-15 1,-5 4,-8 6,-12 3,-3 6,-6 10,-7 4,-2 9,-3 14,-3 5,0 10,1 14,2 4,2 7,4 9,7 2,3 4,6 5,10 1,4 2,8 2,12l0 3zm-17 -5c0,-5 -1,-9 -3,-12 -2,-3 -6,-4 -10,-4 -2,0 -4,0 -6,1 -2,1 -3,2 -4,3 -1,1 -2,3 -3,5 -1,2 -1,4 -1,6l27 0zm91 -19c0,2 0,3 0,4 0,1 0,2 0,3 0,1 0,1 -1,1 0,0 -1,0 -1,0 0,0 -1,0 -1,0 0,0 -1,0 -2,-1 -1,0 -1,0 -2,-1 -1,0 -2,0 -2,0 -1,0 -2,0 -3,1 -1,0 -2,1 -3,2 -1,1 -2,2 -3,3 -1,1 -2,3 -4,5l0 40c0,0 0,1 0,1 0,0 -1,1 -1,1 -1,0 -2,0 -3,1 -1,0 -3,0 -4,0 -2,0 -3,0 -4,0 -1,0 -2,0 -3,-1 -1,0 -1,-1 -1,-1 0,0 0,-1 0,-1l0 -64c0,0 0,-1 0,-1 0,0 1,-1 1,-1 1,0 1,0 2,-1 1,0 2,0 4,0 2,0 3,0 4,0 1,0 2,0 2,1 1,0 1,1 1,1 0,0 0,1 0,1l0 8c2,-2 3,-4 5,-6 1,-2 3,-3 4,-4 1,-1 3,-2 4,-2 1,0 3,-1 4,-1 1,0 1,0 2,0 1,0 1,0 2,0 1,0 1,0 2,1 1,0 1,0 1,1 0,0 0,1 1,1 0,0 0,1 0,1 0,0 0,1 0,2 0,1 0,2 0,4zm37 50c0,4 -1,7 -2,9 -2,2 -4,2 -8,2 -4,0 -7,-1 -8,-2 -2,-2 -2,-4 -2,-9 0,-4 1,-7 2,-9 2,-2 4,-2 8,-2 4,0 7,1 8,2 2,2 2,4 2,9z"/>
   <path class="fil4" d="M1930 400c0,1 0,2 0,3 0,1 0,2 0,2 0,1 0,1 0,1 0,0 -1,1 -1,1 -1,1 -2,1 -3,2 -1,1 -3,1 -5,2 -2,1 -4,1 -6,1 -2,0 -4,1 -6,1 -5,0 -9,-1 -13,-2 -4,-2 -7,-4 -10,-7 -3,-3 -5,-7 -6,-11 -1,-4 -2,-9 -2,-15 0,-6 1,-12 2,-17 2,-5 4,-9 7,-12 3,-3 6,-5 10,-7 4,-1 8,-2 13,-2 2,0 4,0 6,1 2,0 4,1 5,1 2,1 3,1 4,2 1,1 2,1 3,2 1,1 1,1 1,1 0,0 0,1 0,1 0,1 0,1 0,2 0,1 0,2 0,3 0,3 0,5 -1,6 0,1 -1,2 -2,2 -1,0 -2,0 -3,-1 -1,-1 -2,-1 -3,-2 -1,-1 -3,-2 -4,-2 -2,-1 -4,-1 -6,-1 -5,0 -8,2 -11,5 -2,4 -4,9 -4,16 0,3 0,6 1,9 1,3 2,5 3,7 1,2 3,3 5,4 2,1 4,1 6,1 2,0 5,0 6,-1 2,-1 3,-2 5,-2 1,-1 2,-2 3,-2 1,-1 2,-1 2,-1 0,0 1,0 1,0 0,0 1,1 1,1 0,1 0,1 0,2 0,1 0,2 0,4zm95 -22c0,5 -1,10 -2,15 -1,4 -4,8 -7,12 -3,3 -7,6 -11,8 -4,2 -10,3 -15,3 -6,0 -11,-1 -15,-2 -4,-2 -8,-4 -10,-7 -3,-3 -5,-7 -6,-11 -1,-4 -2,-9 -2,-15 0,-5 1,-10 2,-15 1,-5 4,-8 7,-12 3,-3 7,-6 11,-7 4,-2 9,-3 15,-3 6,0 11,1 15,2 4,2 8,4 10,7 3,3 5,7 6,11 1,4 2,9 2,15zm-18 1c0,-3 0,-6 -1,-9 -1,-3 -1,-5 -3,-7 -1,-2 -3,-3 -5,-5 -2,-1 -4,-2 -8,-2 -3,0 -5,0 -7,1 -2,1 -4,2 -5,4 -1,2 -2,4 -3,7 -1,3 -1,6 -1,9 0,3 0,6 1,9 1,3 1,5 3,7 1,2 3,3 5,5 2,1 4,2 7,2 3,0 5,0 7,-1 2,-1 4,-2 5,-4 1,-2 2,-4 3,-7 1,-3 1,-6 1,-9zm152 32c0,0 0,1 0,1 0,0 -1,1 -1,1 -1,0 -2,0 -3,1 -1,0 -3,0 -4,0 -2,0 -3,0 -4,0 -1,0 -2,0 -3,-1 -1,0 -1,-1 -1,-1 0,0 0,-1 0,-1l0 -38c0,-2 0,-4 -1,-6 0,-2 -1,-3 -2,-5 -1,-1 -2,-2 -3,-3 -1,-1 -3,-1 -5,-1 -2,0 -4,1 -6,3 -2,2 -5,4 -7,7l0 42c0,0 0,1 0,1 0,0 -1,1 -1,1 -1,0 -2,0 -3,1 -1,0 -3,0 -4,0 -2,0 -3,0 -4,0 -1,0 -2,0 -3,-1 -1,0 -1,-1 -1,-1 0,0 0,-1 0,-1l0 -38c0,-2 0,-4 -1,-6 0,-2 -1,-3 -2,-5 -1,-1 -2,-2 -3,-3 -1,-1 -3,-1 -5,-1 -2,0 -4,1 -7,3 -2,2 -5,4 -7,7l0 42c0,0 0,1 0,1 0,0 -1,1 -1,1 -1,0 -2,0 -3,1 -1,0 -3,0 -4,0 -2,0 -3,0 -4,0 -1,0 -2,0 -3,-1 -1,0 -1,-1 -1,-1 0,0 0,-1 0,-1l0 -64c0,0 0,-1 0,-1 0,0 1,-1 1,-1 1,0 1,0 2,-1 1,0 2,0 4,0 2,0 3,0 4,0 1,0 2,0 2,1 1,0 1,1 1,1 0,0 0,1 0,1l0 7c4,-4 7,-7 11,-9 4,-2 7,-3 11,-3 3,0 5,0 7,1 2,1 4,1 6,2 2,1 3,2 4,4 1,1 2,3 3,5 2,-2 4,-4 6,-5 2,-1 4,-3 5,-4 2,-1 4,-2 5,-2 2,0 4,-1 5,-1 4,0 8,1 11,2 3,1 5,3 7,6 2,2 3,5 4,9 1,3 1,7 1,10l0 41z"/>
  </g>
 </g>
</svg>
